# xmcd CD database file
#
# Track frame offsets:
#	150
#	11567
#	25895
#	38417
#	52112
#	63909
#	73645
#	84621
#	97954
#	112257
#	124810
#	142098
#	153858
#	165212
#	178557
#
# Disc length: 2685 seconds
#
# Revision: 0
# Processed by: cddbd v1.5.1PL2 Copyright (c) Steve Scherf et al.
# Submitted via: cdripper 1,0,33,916
#
DISCID=c00a7b0f
DTITLE=Johnny Paycheck - The Tender Years
DYEAR=2004
DGENRE=Country
TTITLE0=Tender years
TTITLE1=The Only Hell My Momma Raised
TTITLE2=Don't_Take_Her_She's_All_I_Got
TTITLE3=Slide Off Of Your Satin Sheets
TTITLE4=Take This Job And Shove It
TTITLE5=the race is on
TTITLE6=Motel Time Again
TTITLE7=Heaven's Amost As Big As Texas
TTITLE8=Almost Persuaded
TTITLE9=Me And The IRS
TTITLE10=Billy Jack Washburn
TTITLE11=Heartaches By The Number
TTITLE12=FOR A MINUTE THERE
TTITLE13=Someone To Give My Love To
TTITLE14=The Outlaws Prayer
EXTD=YEAR: 2004
EXTT0=
EXTT1=
EXTT2=
EXTT3=
EXTT4=
EXTT5=
EXTT6=
EXTT7=
EXTT8=
EXTT9=
EXTT10=
EXTT11=
EXTT12=
EXTT13=
EXTT14=
PLAYORDER=
